<svg xmlns="http://www.w3.org/2000/svg" viewBox="0 0 1381.06 408.48"><defs><style>.cls-1{fill:#7a60a9;}.cls-2{fill:#e5ecef;}.cls-3{fill:#353433;}</style></defs><g id="Layer_2" data-name="Layer 2"><g id="Layer_3" data-name="Layer 3"><path class="cls-1" d="M549,94.38c77.88,0,114,32.56,114,80.52,0,36.08-18,59.4-54.56,73v.88c42.68,9.24,62,32.56,62,73,0,52.36-41.36,85.8-111.76,85.8H538.31a101.94,101.94,0,0,1-101.95-102V94.38ZM501,223.3H546.8c37.84,0,54.12-11.88,54.12-38.72,0-26-15.4-37.4-51-37.4H501Zm0,131.12h48c40,0,55.88-12.76,55.88-39.16,0-28.16-16.28-40.92-57.64-40.92H501Z"/><path class="cls-1" d="M994.73,407.66V251.9q0-58.74,2.64-117.48h-.88c-10.12,38.28-21.56,77.44-33.44,115.28l-49.72,158H839.41l-49.72-158c-11.89-37.84-23.33-77-33.45-115.28h-.88Q758,193.16,758,251.9V407.66H696V94.38H799.81l45.32,143.88c11.88,37.84,22.44,77,30.8,115.28h.88c8.36-38.28,18.92-77.44,30.8-115.28L952.93,94.38h103.84V407.66Z"/><path class="cls-1" d="M1169,331.1l-24.64,76.56h-67.77L1185.26,94.38h87.12l108.68,313.28H1313.3l-24.2-76.56ZM1264.9,255c-12.76-40.48-25.08-81.84-35.64-122.32h-.88c-10.56,40.48-22.44,81.84-35.2,122.32l-6.6,20.68h84.92Z"/><path class="cls-1" d="M364.48,0H325.23a44,44,0,0,0-44,44V80.38a15.14,15.14,0,0,1-15.15,15.14H142.4a15.14,15.14,0,0,1-15.15-15.14V44a44,44,0,0,0-44-44H44A44,44,0,0,0,0,44V297.67A110.81,110.81,0,0,0,110.81,408.48H297.67A110.82,110.82,0,0,0,408.48,297.67V44A44,44,0,0,0,364.48,0Z"/><path class="cls-2" d="M152.61,243.8H255.35a21.88,21.88,0,0,1,21.88,21.88v10.43A63.93,63.93,0,0,1,213.31,340H194.66a63.93,63.93,0,0,1-63.93-63.93V265.68a21.88,21.88,0,0,1,21.88-21.88Z"/><path class="cls-3" d="M236.06,267.27H171.91a3.33,3.33,0,0,0-3.33,3.32v.72a3.33,3.33,0,0,0,3.33,3.32h25.42a3.33,3.33,0,0,1,3.33,3.33v62.5a3.32,3.32,0,0,0,3.32,3.32h0a3.33,3.33,0,0,0,3.33-3.32V278a3.33,3.33,0,0,1,3.33-3.33h25.42a3.33,3.33,0,0,0,3.33-3.32v-.72A3.33,3.33,0,0,0,236.06,267.27Z"/><circle class="cls-3" cx="141.21" cy="184.77" r="10.47"/><circle class="cls-2" cx="139.28" cy="187.92" r="5.24"/><circle class="cls-3" cx="276.76" cy="184.77" r="10.47"/><circle class="cls-2" cx="274.84" cy="187.92" r="5.24"/><path class="cls-2" d="M64.12,43.86h0a21.4,21.4,0,0,1,21.4,21.4V80.18A14.19,14.19,0,0,1,71.33,94.38H56.91A14.19,14.19,0,0,1,42.72,80.18V65.26A21.4,21.4,0,0,1,64.12,43.86Z"/><path class="cls-2" d="M344.36,43.86h0a21.4,21.4,0,0,1,21.4,21.4V80.18a14.19,14.19,0,0,1-14.19,14.19H337.15A14.19,14.19,0,0,1,323,80.18V65.26a21.4,21.4,0,0,1,21.4-21.4Z"/></g></g></svg>