<svg xmlns="http://www.w3.org/2000/svg" viewBox="0 0 944.71 313.29"><defs><style>.cls-1{fill:#7a60a9;}</style></defs><g id="Layer_2" data-name="Layer 2"><g id="Layer_3" data-name="Layer 3"><path class="cls-1" d="M112.64,0c77.88,0,114,32.56,114,80.52,0,36.08-18.05,59.4-54.57,73v.88c42.68,9.24,62.05,32.56,62.05,73.05,0,52.36-41.37,85.8-111.77,85.8H102A102,102,0,0,1,0,211.33V0Zm-48,128.92h45.76c37.84,0,54.12-11.88,54.12-38.72,0-26-15.4-37.4-51-37.4H64.68Zm0,131.13h48c40,0,55.88-12.77,55.88-39.17,0-28.16-16.28-40.92-57.64-40.92H64.68Z"/><path class="cls-1" d="M558.37,313.29V157.52Q558.37,98.78,561,40h-.88C550,78.32,538.57,117.48,526.69,155.32L477,313.29H403.05l-49.72-158C341.45,117.48,330,78.32,319.89,40H319q2.64,58.74,2.64,117.48V313.29h-62V0H363.45l45.32,143.88c11.88,37.84,22.44,77,30.8,115.29h.88c8.36-38.29,18.92-77.45,30.8-115.29L516.57,0H620.42V313.29Z"/><path class="cls-1" d="M732.62,236.73,708,313.29H640.22L748.9,0H836L944.71,313.29H876.94l-24.2-76.56Zm95.92-76.13c-12.76-40.48-25.08-81.84-35.64-122.32H792c-10.56,40.48-22.44,81.84-35.2,122.32l-6.6,20.68h84.92Z"/></g></g></svg>