<svg xmlns="http://www.w3.org/2000/svg" viewBox="0 0 403.77 407.34"><defs><style>.cls-1{fill:#7a60a9;}</style></defs><g id="Layer_2" data-name="Layer 2"><g id="Layer_3" data-name="Layer 3"><path class="cls-1" d="M68.67,47.47A21.66,21.66,0,0,0,47,69.1V88.88a15.33,15.33,0,0,0,15.31,15.31H75A15.32,15.32,0,0,0,90.3,88.88V69.1A21.65,21.65,0,0,0,68.67,47.47ZM80.84,88.88A5.86,5.86,0,0,1,75,94.73H62.35a5.86,5.86,0,0,1-5.84-5.85V69.1a12.17,12.17,0,1,1,24.33,0Z"/><path class="cls-1" d="M335.39,48.75a21.66,21.66,0,0,0-21.63,21.64V88.88a15.33,15.33,0,0,0,15.31,15.31h12.64A15.33,15.33,0,0,0,357,88.88V70.39A21.67,21.67,0,0,0,335.39,48.75Zm12.16,40.13a5.86,5.86,0,0,1-5.84,5.85H329.07a5.86,5.86,0,0,1-5.85-5.85V70.39a12.17,12.17,0,1,1,24.33,0Z"/><path class="cls-1" d="M270.82,224.62H128a17.69,17.69,0,0,0-17.67,17.67,84.2,84.2,0,0,0,84.1,84.1h10a84.19,84.19,0,0,0,84.1-84.1A17.69,17.69,0,0,0,270.82,224.62Zm-66.43,82.84h-.27V265.8h25.64a4.74,4.74,0,0,0,0-9.47H169a4.74,4.74,0,1,0,0,9.47h25.63v41.66h-.27a65.25,65.25,0,0,1-65.16-63.91H269.55A65.25,65.25,0,0,1,204.39,307.46Z"/><path class="cls-1" d="M137.61,187.49a16.1,16.1,0,1,0-16.09-16.1A16.12,16.12,0,0,0,137.61,187.49Z"/><path class="cls-1" d="M266.16,187.13A16.1,16.1,0,1,0,250.07,171,16.11,16.11,0,0,0,266.16,187.13Z"/><path class="cls-1" d="M362.25,0H302.94c-20.85,0-37.82,18-37.82,40.2V66.13a4.26,4.26,0,0,1-4.26,4.26H142.77a4.26,4.26,0,0,1-4.26-4.26V40.2c0-22.17-17-40.2-37.82-40.2h-55C20.48,0,0,21.91,0,48.83V298.49c0,60,44.94,108.85,100.17,108.85H303.61c55.23,0,100.16-48.83,100.16-108.85V44.28C403.77,19.87,385.14,0,362.25,0Zm13.12,298.49c0,44.36-32.19,80.45-71.76,80.45H100.17c-39.58,0-71.77-36.09-71.77-80.45V48.83c0-11.26,7.74-20.43,17.25-20.43h55c5.1,0,9.42,5.4,9.42,11.8V76.3c0,12.4,9.74,22.49,21.73,22.49h140c12,0,21.73-10.09,21.73-22.49V40.2c0-6.4,4.31-11.8,9.42-11.8h59.31c7.24,0,13.12,7.13,13.12,15.88Z"/></g></g></svg>