<svg xmlns="http://www.w3.org/2000/svg" viewBox="0 0 1454.43 407.33"><defs><style>.cls-1{fill:#7a60a9;}</style></defs><g id="Layer_2" data-name="Layer 2"><g id="Layer_3" data-name="Layer 3"><path class="cls-1" d="M68.67,47.46A21.66,21.66,0,0,0,47,69.09V88.88a15.33,15.33,0,0,0,15.31,15.31H75A15.33,15.33,0,0,0,90.3,88.88V69.09A21.66,21.66,0,0,0,68.67,47.46ZM80.84,88.88A5.86,5.86,0,0,1,75,94.72H62.35a5.85,5.85,0,0,1-5.84-5.84V69.09a12.17,12.17,0,0,1,24.33,0Z"/><path class="cls-1" d="M335.39,48.75a21.66,21.66,0,0,0-21.63,21.63v18.5a15.32,15.32,0,0,0,15.31,15.31H341.7A15.33,15.33,0,0,0,357,88.88V70.38A21.66,21.66,0,0,0,335.39,48.75Zm12.16,40.13a5.85,5.85,0,0,1-5.85,5.84H329.07a5.85,5.85,0,0,1-5.85-5.84V70.38a12.17,12.17,0,0,1,24.33,0Z"/><path class="cls-1" d="M270.82,224.62H128a17.68,17.68,0,0,0-17.67,17.67,84.2,84.2,0,0,0,84.1,84.1h10a84.2,84.2,0,0,0,84.1-84.1A17.69,17.69,0,0,0,270.82,224.62Zm-66.43,82.84h-.27V265.79h25.63a4.73,4.73,0,1,0,0-9.46H169a4.73,4.73,0,1,0,0,9.46h25.63v41.67h-.27a65.26,65.26,0,0,1-65.16-63.91H269.55A65.26,65.26,0,0,1,204.39,307.46Z"/><path class="cls-1" d="M137.61,187.49a16.1,16.1,0,1,0-16.09-16.1A16.12,16.12,0,0,0,137.61,187.49Z"/><path class="cls-1" d="M266.16,187.13A16.1,16.1,0,1,0,250.07,171,16.11,16.11,0,0,0,266.16,187.13Z"/><path class="cls-1" d="M362.25,0H302.94c-20.86,0-37.82,18-37.82,40.2V66.13a4.26,4.26,0,0,1-4.26,4.26H142.77a4.27,4.27,0,0,1-4.27-4.26V40.2C138.5,18,121.54,0,100.69,0h-55C20.48,0,0,21.91,0,48.83V298.49c0,60,44.93,108.84,100.17,108.84H303.61c55.23,0,100.16-48.83,100.16-108.84V44.28C403.77,19.87,385.14,0,362.25,0Zm13.12,298.49c0,44.36-32.19,80.45-71.76,80.45H100.17c-39.58,0-71.77-36.09-71.77-80.45V48.83c0-11.27,7.74-20.43,17.25-20.43h55c5.1,0,9.42,5.4,9.42,11.8V76.3c0,12.4,9.74,22.49,21.72,22.49h140c12,0,21.73-10.09,21.73-22.49V40.2c0-6.4,4.31-11.8,9.42-11.8h59.31c7.23,0,13.12,7.12,13.12,15.88Z"/><path class="cls-1" d="M569.92,70.39c82.79,0,121.14,34.61,121.14,85.6,0,38.35-19.17,63.15-58,77.64v.94c45.37,9.82,66,34.61,66,77.65,0,55.66-44,91.21-118.81,91.21H558.55A108.38,108.38,0,0,1,450.18,295.05V70.39Zm-51,137.05h48.65c40.23,0,57.53-12.63,57.53-41.16,0-27.6-16.37-39.76-54.26-39.76H518.93Zm0,139.39h51c42.56,0,59.4-13.57,59.4-41.63,0-29.94-17.3-43.5-61.27-43.5H518.93Z"/><path class="cls-1" d="M1043.74,403.43V237.84q0-62.44,2.81-124.88h-.93c-10.76,40.69-22.93,82.32-35.55,122.55L957.21,403.43H878.63L825.77,235.51C813.15,195.28,801,153.65,790.23,113h-.94q2.81,62.45,2.81,124.88V403.43h-66v-333H836.53l48.18,153c12.63,40.23,23.86,81.86,32.74,122.55h.94c8.89-40.69,20.11-82.32,32.74-122.55L999.31,70.39H1109.7v333Z"/><path class="cls-1" d="M1229,322l-26.19,81.39h-72l115.53-333h92.61l115.54,333h-72L1356.67,322Zm102-80.92c-13.56-43-26.66-87-37.89-130h-.93c-11.23,43-23.86,87-37.42,130l-7,22H1338Z"/></g></g></svg>