<svg xmlns="http://www.w3.org/2000/svg" viewBox="0 0 408.48 408.48"><defs><style>.cls-1{fill:#7a60a9;}.cls-2{fill:#e5ecef;}.cls-3{fill:#353433;}</style></defs><g id="Layer_2" data-name="Layer 2"><g id="Layer_3" data-name="Layer 3"><path class="cls-1" d="M364.48,0H325.23a44,44,0,0,0-44,44V80.38a15.14,15.14,0,0,1-15.15,15.14H142.4a15.14,15.14,0,0,1-15.15-15.14V44a44,44,0,0,0-44-44H44A44,44,0,0,0,0,44V297.67A110.81,110.81,0,0,0,110.81,408.48H297.67A110.82,110.82,0,0,0,408.48,297.67V44A44,44,0,0,0,364.48,0Z"/><path class="cls-2" d="M152.61,243.8H255.35a21.88,21.88,0,0,1,21.88,21.88v10.43A63.93,63.93,0,0,1,213.31,340H194.66a63.93,63.93,0,0,1-63.93-63.93V265.68a21.88,21.88,0,0,1,21.88-21.88Z"/><path class="cls-3" d="M204,347.78a7.32,7.32,0,0,1-7.32-7.32V278.63H171.91a7.33,7.33,0,0,1-7.33-7.32v-.72a7.33,7.33,0,0,1,7.33-7.32h64.15a7.33,7.33,0,0,1,7.33,7.32v.72a7.33,7.33,0,0,1-7.33,7.32H211.31v61.83A7.33,7.33,0,0,1,204,347.78Z"/><circle class="cls-3" cx="136.46" cy="184.77" r="14.66"/><circle class="cls-2" cx="133.77" cy="189.18" r="7.33"/><circle class="cls-3" cx="272.02" cy="184.77" r="14.66"/><circle class="cls-2" cx="269.32" cy="189.18" r="7.33"/><path class="cls-2" d="M64.12,43.86h0a21.4,21.4,0,0,1,21.4,21.4V80.18A14.19,14.19,0,0,1,71.33,94.38H56.91A14.19,14.19,0,0,1,42.72,80.18V65.26a21.4,21.4,0,0,1,21.4-21.4Z"/><path class="cls-2" d="M344.36,43.86h0a21.4,21.4,0,0,1,21.4,21.4V80.18a14.19,14.19,0,0,1-14.19,14.19H337.15A14.19,14.19,0,0,1,323,80.18V65.26a21.4,21.4,0,0,1,21.4-21.4Z"/></g></g></svg>