<svg xmlns="http://www.w3.org/2000/svg" viewBox="0 0 1387.67 407.34"><defs><style>.cls-1{fill:#7a60a9;}.cls-2{fill:#fff;}</style></defs><g id="Layer_2" data-name="Layer 2"><g id="Layer_3" data-name="Layer 3"><path class="cls-1" d="M555.61,94.05c77.88,0,114,32.56,114,80.52,0,36.08-18,59.41-54.56,73.05v.88c42.68,9.24,62,32.56,62,73,0,52.36-41.36,85.8-111.76,85.8H544.92A102,102,0,0,1,443,305.39V94.05ZM507.65,223h45.76c37.84,0,54.12-11.88,54.12-38.73,0-26-15.4-37.4-51-37.4H507.65Zm0,131.12h48c40,0,55.88-12.76,55.88-39.16,0-28.16-16.28-40.92-57.64-40.92h-46.2Z"/><path class="cls-1" d="M1001.34,407.34V251.58q0-58.76,2.64-117.49h-.88c-10.12,38.28-21.56,77.44-33.44,115.29l-49.72,158H846l-49.73-158c-11.88-37.85-23.32-77-33.44-115.29H762q2.64,58.74,2.64,117.49V407.34h-62V94.05H806.41l45.33,143.89c11.88,37.84,22.44,77,30.8,115.28h.88c8.36-38.28,18.92-77.44,30.8-115.28L959.54,94.05h103.84V407.34Z"/><path class="cls-1" d="M1175.59,330.78,1151,407.34h-67.77L1191.87,94.05H1279l108.68,313.29h-67.76l-24.2-76.56Zm95.92-76.12c-12.76-40.48-25.08-81.85-35.64-122.33H1235c-10.56,40.48-22.44,81.85-35.2,122.33l-6.6,20.68h84.92Z"/><path class="cls-2" d="M403.77,44.28V298.49c0,60-44.93,108.85-100.16,108.85H100.17C44.94,407.34,0,358.51,0,298.49V48.83C0,21.91,20.48,0,45.65,0h55c20.85,0,37.82,18,37.82,40.2V66.13a4.26,4.26,0,0,0,4.26,4.26H260.86a4.26,4.26,0,0,0,4.26-4.26V40.2c0-22.17,17-40.2,37.82-40.2h59.31C385.14,0,403.77,19.87,403.77,44.28Z"/><path class="cls-1" d="M67.84,47.49C56.14,47.92,47,57.91,47,69.63V88.88a15.3,15.3,0,0,0,15.31,15.31H75A15.32,15.32,0,0,0,90.3,88.88V69.1A21.64,21.64,0,0,0,67.84,47.49Zm13,41.39A5.86,5.86,0,0,1,75,94.73H62.35a5.83,5.83,0,0,1-5.84-5.84V69.45A12.41,12.41,0,0,1,67.5,57,12.19,12.19,0,0,1,80.84,69.1Z"/><path class="cls-1" d="M334.54,48.77c-11.7.45-20.78,10.44-20.78,22.15v18a15.3,15.3,0,0,0,15.31,15.31h12.64A15.3,15.3,0,0,0,357,88.88V70.39A21.66,21.66,0,0,0,334.54,48.77Zm13,40.11a5.86,5.86,0,0,1-5.85,5.85H329.07a5.86,5.86,0,0,1-5.85-5.85V70.75a12.42,12.42,0,0,1,11-12.48,12.18,12.18,0,0,1,13.33,12.12Z"/><path class="cls-1" d="M135.51,187.35a16.09,16.09,0,1,0-13.86-13.86A16.11,16.11,0,0,0,135.51,187.35Z"/><path class="cls-1" d="M264.06,187a16.09,16.09,0,1,0-13.86-13.86A16.1,16.1,0,0,0,264.06,187Z"/><path class="cls-1" d="M362.25,0H302.94c-20.85,0-37.82,18-37.82,40.2V66.13a4.26,4.26,0,0,1-4.26,4.26H142.77a4.26,4.26,0,0,1-4.26-4.26V40.2c0-22.17-17-40.2-37.82-40.2h-55C20.48,0,0,21.91,0,48.83V298.49c0,60,44.94,108.85,100.17,108.85H303.61c55.23,0,100.16-48.83,100.16-108.85V44.28C403.77,19.87,385.14,0,362.25,0Zm13.12,298.49c0,44.36-32.19,80.45-71.76,80.45H100.17c-39.58,0-71.77-36.09-71.77-80.45V48.83c0-11.26,7.74-20.43,17.25-20.43h55c5.1,0,9.42,5.4,9.42,11.8V76.3c0,12.4,9.74,22.49,21.73,22.49h140c12,0,21.73-10.09,21.73-22.49V40.2c0-6.4,4.31-11.8,9.42-11.8h59.31c7.24,0,13.12,7.13,13.12,15.88Z"/><path class="cls-1" d="M114.08,240.21v5.29a87.8,87.8,0,0,0,87.8,87.8h0a87.8,87.8,0,0,0,87.8-87.8v-5.29a6,6,0,0,0-6-6H120.12A6,6,0,0,0,114.08,240.21Zm96.8,70.46V294.08a2.28,2.28,0,0,1,2.28-2.28h13.32a8.89,8.89,0,0,0,8.9-8.9v-1.19a8.9,8.9,0,0,0-8.9-8.91H177.29a8.9,8.9,0,0,0-8.9,8.91v1.19a8.89,8.89,0,0,0,8.9,8.9h13.32a2.28,2.28,0,0,1,2.27,2.28v16.59a2.28,2.28,0,0,1-2.53,2.27c-28.46-3-52.23-25.37-55.78-53.66a4.55,4.55,0,0,1,4.52-5.11H264.68a4.55,4.55,0,0,1,4.52,5.11c-3.55,28.29-27.32,50.68-55.78,53.66A2.29,2.29,0,0,1,210.88,310.67Z"/></g></g></svg>